# xmcd
#
# Track frame offsets: 
#        150
#        15170
#        31585
#        45790
#        59778
#        73539
#        90533
#        105802
#        119902
#        131763
#        146541
#        160759
#        176576
#        187367
#        204806
#        216981
#        228644
#        241711
#        253071
#        266403
#
# Disc length: 3705 seconds
#
# Revision: 1
# Processed by: cddbd v1.5.2PL0 Copyright (c) Steve Scherf et al.
# Submitted via: ExactAudioCopy v1.3
#
DISCID=120e7714
DTITLE=Los Mitos - 20 grandes exitos
DYEAR=2004
DGENRE=balada 60s
TTITLE0=Luces
TTITLE1=Si te acuerdas de mi
TTITLE2=Cuando vuelvas
TTITLE3=Todos lo saben
TTITLE4=Mirame
TTITLE5=Suena una guitarra
TTITLE6=Me conformo
TTITLE7=Es muy facil
TTITLE8=Soñando
TTITLE9=Lejos de ti
TTITLE10=Al caminar
TTITLE11=Un adios
TTITLE12=Eleonor
TTITLE13=Ayudame
TTITLE14=Hola como estas
TTITLE15=Son palabras
TTITLE16=Me estoy volviendo loco
TTITLE17=Coge mi mano
TTITLE18=Vive la vida
TTITLE19=Cantemos asi
EXTD=
EXTT0=
EXTT1=
EXTT2=
EXTT3=
EXTT4=
EXTT5=
EXTT6=
EXTT7=
EXTT8=
EXTT9=
EXTT10=
EXTT11=
EXTT12=
EXTT13=
EXTT14=
EXTT15=
EXTT16=
EXTT17=
EXTT18=
EXTT19=
PLAYORDER=
